<svg xmlns="http://www.w3.org/2000/svg" id="svg1" width="32" height="32" viewBox="0 0 32 32">
    <style id="style1">
        :root {
            --color: black;
        }
        @media (prefers-color-scheme:dark) {
            :root {
                --color: white;
            }
        }
    </style>
    <path id="path1" fill-rule="evenodd"
        d="M15.068.02a8 8 0 0 0-.66.06c-.114.02-.404.054-.643.076s-.56.067-.712.102c-.153.035-.396.08-.539.099s-.328.06-.411.088c-.083.029-.255.07-.382.092a3 3 0 0 0-.371.09 6 6 0 0 1-.365.113c-.312.086-.62.195-.765.27a1 1 0 0 1-.24.09 1.3 1.3 0 0 0-.274.106.8.8 0 0 1-.195.082c-.05 0-.854.403-.924.462a.5.5 0 0 1-.139.07.7.7 0 0 0-.185.108.4.4 0 0 1-.136.08.5.5 0 0 0-.151.087.6.6 0 0 1-.14.085c-.042 0-.87.531-1.166.748-.816.598-1.326 1.01-1.763 1.423-.325.307-1.062 1.093-1.21 1.29-.053.07-.192.242-.308.384q-.347.42-.77 1.075c-.163.25-.238.375-.426.704A2.765 2.731 0 0 1 2.066 8c-.215.3-.699 1.284-.832 1.695a.8.8 0 0 1-.084.192c-.02.023-.066.132-.104.24-.038.11-.084.217-.102.238a.8.8 0 0 0-.075.21 1.6 1.6 0 0 1-.091.268c-.05.096-.142.406-.24.795a25.442 25.13 0 0 1-.12.456 5 5 0 0 0-.104.515c-.02.145-.065.396-.1.557-.037.16-.084.477-.104.703a50.147 49.53 0 0 1-.072.721c-.098.896.004 3.257.173 4.016.039.17.085.42.104.554s.052.289.073.343.067.222.102.373c.057.244.146.539.33 1.099a3.872 3.824 0 0 0 .137.343c.043.094.091.224.105.287a1 1 0 0 0 .088.223 1 1 0 0 1 .087.228.9.9 0 0 0 .087.223 1 1 0 0 1 .085.189c.024.086.207.488.267.583.017.029.071.129.12.223a8.665 8.558 0 0 0 .182.332l.159.274a1.751 1.73 0 0 0 .147.212c.045.054.082.117.082.142s.025.065.055.09.085.1.123.167c.165.297.761 1.155 1.034 1.489.355.434 1.359 1.457 1.808 1.842.121.104.254.221.294.26.193.184.764.641 1.026.82.702.48 1.436.946 1.49.946.02 0 .056.025.082.056.026.03.11.084.187.118.077.035.179.086.226.115.048.028.142.075.209.104s.145.066.174.084c.08.05.513.243.545.244.015 0 .075.025.132.056.214.114 1.583.605 1.894.679a8.389 8.285 0 0 1 .417.114c.334.102.638.176 1.008.248.182.035.424.087.539.116.115.028.373.062.573.075.201.012.522.044.713.071.584.082 1.721.098 2.363.033.306-.032.728-.073.938-.091.21-.02.484-.057.608-.085.125-.027.363-.073.53-.102a2.7 2.7 0 0 0 .456-.117 1.6 1.6 0 0 1 .323-.09c.093-.014.23-.047.307-.073.077-.027.233-.07.348-.097.253-.06.76-.23.904-.305a.5.5 0 0 1 .132-.055c.026 0 .165-.061.701-.31.115-.053.303-.137.418-.188s.232-.105.26-.121c.029-.017.209-.109.4-.204.467-.235 1.24-.715 1.755-1.092l.346-.254c.086-.062.18-.134.209-.158.03-.025.133-.11.232-.189.983-.793 2.48-2.366 2.914-3.062.038-.061.129-.202.202-.313l.208-.319.17-.257a18 18 0 0 0 .646-1.136c.023-.038.064-.123.093-.189s.067-.143.084-.171c.105-.17.456-.97.456-1.04 0-.05.17-.45.262-.613.028-.05.074-.2.103-.336.028-.135.074-.287.1-.339.028-.051.061-.17.076-.264a2.4 2.4 0 0 1 .09-.356c.035-.102.087-.318.116-.481s.068-.35.088-.416.058-.274.085-.463a8 8 0 0 1 .11-.6c.102-.436.094-3.274-.012-3.794a10 10 0 0 1-.112-.706 3 3 0 0 0-.088-.475 2 2 0 0 1-.072-.374c-.018-.21-.11-.569-.247-.968-.029-.085-.09-.27-.134-.412-.182-.572-.172-.547-.469-1.235-.172-.402-.892-1.813-1.198-2.352a18.436 18.21 0 0 1-.19-.343 9 9 0 0 0-.398-.64c-.74-1.1-2.588-2.93-3.787-3.754-.11-.075-.297-.207-.415-.292a8 8 0 0 0-.381-.257 4.61 4.552 0 0 1-.292-.197.6.6 0 0 0-.159-.095.4.4 0 0 1-.126-.065 9 9 0 0 0-.565-.305 108.59 107.254 0 0 1-.537-.275 6 6 0 0 0-.604-.264 1 1 0 0 1-.193-.087 1.2 1.2 0 0 0-.23-.099 9 9 0 0 1-.755-.292 1.3 1.3 0 0 0-.267-.084 4 4 0 0 1-.38-.103 9 9 0 0 0-1.009-.244 11 11 0 0 1-.521-.113 5 5 0 0 0-.626-.092 6 6 0 0 1-.556-.073c-.298-.072-1.73-.11-2.537-.065m2.26.823c.076.02.342.05.59.07.249.018.53.056.626.083s.283.066.417.088.337.067.451.102c.115.035.28.074.365.086.165.023.592.151.887.265.095.037.245.087.332.11.088.025.197.068.244.097s.146.071.223.095a.8.8 0 0 1 .177.072c.02.016.106.053.19.082.146.051.462.19.606.265.124.066.168.088.542.265.203.096.438.218.522.272l.482.306c.395.25.528.343.831.584l.327.258c.721.553 1.903 1.723 2.69 2.663l.187.223c.196.233.443.568.637.862.112.17.23.347.263.394.07.101.367.644.462.841.036.076.08.16.097.19.018.028.05.09.07.136.02.048.074.164.119.258.18.378.295.645.295.683 0 .022.03.1.068.173s.095.212.127.308c.033.096.078.206.102.243a.7.7 0 0 1 .069.189c.013.066.053.175.087.241.034.067.079.21.099.32.02.109.066.263.102.343a1.5 1.5 0 0 1 .09.271c.012.07.053.193.088.274.036.08.076.224.09.319.012.094.052.287.087.429.2.802.346 3.11.25 3.964-.138 1.213-.315 2.25-.455 2.651-.04.117-.074.235-.074.262s-.038.131-.084.233a1.6 1.6 0 0 0-.108.338 1 1 0 0 1-.076.253c-.028.055-.072.17-.098.258a10 10 0 0 1-.326.88c-.248.565-.744 1.53-.922 1.79l-.19.283a34.476 34.052 0 0 1-.299.434l-.338.484c-.09.13-.345.444-.567.699a17.4 17.4 0 0 1-3.203 2.893c-.423.295-.478.33-.566.369a.6.6 0 0 0-.139.084c-.071.063-.886.464-.944.464a1 1 0 0 0-.22.082c-.409.194-.641.295-.677.295a1 1 0 0 0-.21.086 1 1 0 0 1-.219.086.8.8 0 0 0-.204.082c-.086.045-.21.093-.274.107a1.2 1.2 0 0 0-.242.087 1.5 1.5 0 0 1-.32.097c-.11.02-.242.059-.296.086a1.5 1.5 0 0 1-.321.09c-.122.022-.3.07-.396.105-.096.036-.3.082-.454.102s-.37.06-.48.088-.414.066-.677.084c-.263.02-.592.05-.732.068-.328.043-1.231.043-1.589 0-.152-.018-.527-.049-.833-.068a6 6 0 0 1-.747-.086 6 6 0 0 0-.54-.102 4 4 0 0 1-.492-.101 2 2 0 0 0-.312-.073c-.157-.021-.52-.122-.88-.244-.086-.03-.252-.081-.368-.116a2.4 2.4 0 0 1-.313-.112 1 1 0 0 0-.223-.077 1.3 1.3 0 0 1-.277-.107.7.7 0 0 0-.213-.082.7.7 0 0 1-.208-.08 1.5 1.5 0 0 0-.255-.105.7.7 0 0 1-.197-.092.4.4 0 0 0-.125-.066c-.042 0-.487-.23-.897-.463a436.295 430.928 0 0 0-.492-.28 1 1 0 0 1-.186-.133c-.024-.028-.059-.05-.078-.05-.095 0-.997-.638-1.572-1.111-.62-.51-1.774-1.69-2.236-2.285a176.435 174.265 0 0 0-.36-.463 18.927 18.927 0 0 1-.89-1.31c-.125-.198-.84-1.596-.84-1.641a1.5 1.5 0 0 0-.085-.223 5 5 0 0 1-.135-.348 16 16 0 0 0-.162-.446 8 8 0 0 1-.174-.515 6 6 0 0 0-.114-.36 1.936 1.912 0 0 1-.075-.275 3 3 0 0 0-.09-.343 4 4 0 0 1-.104-.463 4 4 0 0 0-.087-.43 4.4 4.4 0 0 1-.086-.583c-.021-.227-.062-.574-.09-.772-.152-1.04-.076-2.673.176-3.828.046-.207.093-.461.106-.564a2 2 0 0 1 .086-.366c.035-.099.074-.27.087-.38.014-.11.053-.277.087-.372a3.78 3.733 0 0 0 .104-.36c.024-.104.067-.235.096-.292.03-.056.073-.172.097-.257.054-.19.204-.558.294-.726a.6.6 0 0 0 .068-.167c0-.044.387-.818.558-1.115a11.523 11.381 0 0 0 .187-.344 9.679 9.56 0 0 1 .19-.343c.055-.094.133-.233.174-.309.095-.179.309-.498.506-.754.286-.373 1.175-1.388 1.642-1.875.457-.478.959-.922 1.39-1.232a4 4 0 0 0 .21-.16 10 10 0 0 1 .594-.406 8.112 8.012 0 0 0 .186-.115 5.254 5.19 0 0 1 .231-.138c.057-.031.185-.103.284-.16a16 16 0 0 1 1.103-.581c.33-.164.665-.32.744-.347a1 1 0 0 0 .182-.081c.021-.017.119-.054.218-.083a2 2 0 0 0 .259-.094 1.5 1.5 0 0 1 .237-.085 4 4 0 0 0 .332-.113c.39-.156.94-.296 1.72-.437.143-.026.363-.07.487-.098s.5-.076.834-.106.67-.07.747-.086c.182-.04 2.148-.01 2.328.035M8.952 6.745c-2.18.02-2.14.016-2.256.19-.065.097-.06 3.815.016 11.55.018 1.86.033 4.076.033 4.926 0 1.734.002 1.747.218 1.892l.147.099 2.433-.012c2.679-.013 2.577-.005 2.743-.225.073-.097.101-7.066.034-8.361l-.022-.429-.127-.124a.47.47 0 0 0-.272-.146c-.113-.018-.168-.051-.243-.149l-.098-.126-.02-2.422c-.013-1.333-.027-3.15-.032-4.036-.017-2.644-.026-2.698-.434-2.652-.038.004-.992.015-2.12.025m6.846-.001c-.745.01-1.381.032-1.413.047-.129.063-.145.2-.12 1.03.012.438.038 2.417.056 4.4l.033 3.604-.088.077a.5.5 0 0 1-.216.098q-.326.052-.445.271l-.075.137.032 2.626c.082 6.812.05 6.167.314 6.302.17.087 4.389.07 4.536-.019.256-.154.26-.29.147-6.95-.04-2.347-.012-2.181-.38-2.301-.278-.09-.38-.152-.4-.241-.016-.08-.06-5.01-.066-7.277-.003-1.456-.007-1.55-.07-1.64-.13-.19-.113-.189-1.845-.164m4.96.024c-.234.08-.22-.191-.202 3.668.009 1.925.032 3.933.052 4.462l.036.961-.1.1c-.077.076-.148.106-.297.126-.45.06-.43-.077-.398 2.829.037 3.317.099 6.114.137 6.213.08.21.055.207 2.728.207 2.66-.001 2.552.007 2.708-.201.083-.111.093-3.672.018-6.494-.085-3.208-.1-4.395-.101-7.87-.001-3.979.005-3.847-.183-3.97-.109-.07-4.198-.099-4.398-.03"
        style="fill:var(--color);stroke-width:1" />
</svg>